<?xml version="1.0" standalone="no"?><!DOCTYPE svg PUBLIC "-//W3C//DTD SVG 1.1//EN" "http://www.w3.org/Graphics/SVG/1.1/DTD/svg11.dtd"><svg t="1652534428337" class="icon" viewBox="0 0 1024 1024" version="1.1" xmlns="http://www.w3.org/2000/svg" p-id="4647" width="32" height="32" xmlns:xlink="http://www.w3.org/1999/xlink"><defs><style type="text/css">@font-face { font-family: feedback-iconfont; src: url("//at.alicdn.com/t/font_1031158_u69w8yhxdu.woff2?t=1630033759944") format("woff2"), url("//at.alicdn.com/t/font_1031158_u69w8yhxdu.woff?t=1630033759944") format("woff"), url("//at.alicdn.com/t/font_1031158_u69w8yhxdu.ttf?t=1630033759944") format("truetype"); }
</style></defs><path d="M145.6 1020H20c-8.8 0-16-7.2-16-16v-360c0-8.8 7.2-16 16-16h125.6c8.8 0 16 7.2 16 16v360c0 8.8-7.2 16-16 16z m-109.6-32h93.6v-328H36v328zM360 1020H234.4c-8.8 0-16-7.2-16-16V488c0-8.8 7.2-16 16-16H360c8.8 0 16 7.2 16 16v516c0 8.8-7.2 16-16 16z m-109.6-32H344V504H250.4v484zM574.4 1020H449.6c-8.8 0-16-7.2-16-16v-672c0-8.8 7.2-16 16-16h125.6c8.8 0 16 7.2 16 16v672c-0.8 8.8-8 16-16.8 16z m-108.8-32h93.6v-640H465.6v640zM789.6 1020H664c-8.8 0-16-7.2-16-16V176c0-8.8 7.2-16 16-16h125.6c8.8 0 16 7.2 16 16v828c0 8.8-7.2 16-16 16z m-109.6-32h93.6V192H680v796zM1004 1020h-125.6c-8.8 0-16-7.2-16-16V20c0-8.8 7.2-16 16-16h125.6c8.8 0 16 7.2 16 16v984c0 8.8-7.2 16-16 16z m-109.6-32h93.6V36h-93.6v952z" p-id="4648" fill="#dbdbdb"></path></svg>