<?xml version="1.0" standalone="no"?><!DOCTYPE svg PUBLIC "-//W3C//DTD SVG 1.1//EN" "http://www.w3.org/Graphics/SVG/1.1/DTD/svg11.dtd"><svg t="1640592145813" class="icon" viewBox="0 0 1024 1024" version="1.1" xmlns="http://www.w3.org/2000/svg" p-id="2345" xmlns:xlink="http://www.w3.org/1999/xlink" width="64" height="64"><defs><style type="text/css"></style></defs><path d="M68.821333 8.96l4.010667 3.541333 938.666667 938.666667a42.666667 42.666667 0 0 1-56.32 63.872l-4.010667-3.541333-236.032-235.989334A128 128 0 0 1 597.333333 853.333333H128a128 128 0 0 1-128-128V298.666667a128 128 0 0 1 111.402667-126.933334L12.501333 72.832A42.666667 42.666667 0 0 1 68.821333 8.96zM195.626667 256H128a42.666667 42.666667 0 0 0-42.368 37.674667L85.333333 298.666667v426.666666a42.666667 42.666667 0 0 0 37.674667 42.368L128 768h469.333333a42.666667 42.666667 0 0 0 42.368-37.674667L640 725.333333v-24.96L195.626667 256zM597.333333 170.666667a128 128 0 0 1 128 128v133.248l230.912-167.765334 0.810667-0.554666a42.666667 42.666667 0 0 1 2.944-1.877334l-3.754667 2.432a43.008 43.008 0 0 1 24.234667-8.106666L981.333333 256h1.706667c0.981333 0.085333 1.92 0.128 2.858667 0.256L981.333333 256c2.773333 0 5.546667 0.256 8.106667 0.768l1.194667 0.256 3.84 1.024 0.853333 0.298667a42.965333 42.965333 0 0 1 20.053333 14.634666l0.469334 0.597334 0.554666 0.810666a42.666667 42.666667 0 0 1 1.877334 2.944l-2.432-3.754666A43.008 43.008 0 0 1 1024 298.666667v426.666666a42.666667 42.666667 0 0 1-85.333333 0V382.378667l-163.157334 118.570666A85.333333 85.333333 0 0 1 640 431.914667V298.666667a42.666667 42.666667 0 0 0-37.674667-42.368L597.333333 256h-128a42.666667 42.666667 0 0 1 0-85.333333h128z" fill="#707070" p-id="2346"></path></svg>