<?xml version="1.0" standalone="no"?><!DOCTYPE svg PUBLIC "-//W3C//DTD SVG 1.1//EN" "http://www.w3.org/Graphics/SVG/1.1/DTD/svg11.dtd"><svg t="1640593707585" class="icon" viewBox="0 0 1084 1024" version="1.1" xmlns="http://www.w3.org/2000/svg" p-id="2112" xmlns:xlink="http://www.w3.org/1999/xlink" width="67.75" height="64"><defs><style type="text/css"></style></defs><path d="M949.083265 0.006949H135.583324a134.22749 134.22749 0 0 0-135.583324 132.871657v531.825587c0 73.045516 45.589893 139.989782 120.499679 139.989781l331.501226 2.372708L813.499941 1024l-36.099059-216.933318 186.42707-2.372708c75.248745 0 120.838637-66.944266 120.838637-139.989781V132.878606A134.22749 134.22749 0 0 0 949.083265 0.006949zM261.167377 474.548581A60.334579 60.334579 0 1 1 322.010394 413.536086a60.334579 60.334579 0 0 1-60.843017 60.504058zM542.333294 474.548581a60.334579 60.334579 0 1 1 60.334579-60.334579A60.334579 60.334579 0 0 1 542.333294 474.040144z m281.165918 0a60.334579 60.334579 0 1 1 60.334579-60.334579 60.334579 60.334579 0 0 1-60.334579 59.826142z" p-id="2113" fill="#2c2c2c"></path></svg>