<?xml version="1.0" standalone="no"?><!DOCTYPE svg PUBLIC "-//W3C//DTD SVG 1.1//EN" "http://www.w3.org/Graphics/SVG/1.1/DTD/svg11.dtd"><svg t="1640593786235" class="icon" viewBox="0 0 1024 1024" version="1.1" xmlns="http://www.w3.org/2000/svg" p-id="2100" xmlns:xlink="http://www.w3.org/1999/xlink" width="64" height="64"><defs><style type="text/css"></style></defs><path d="M369.152 547.84H225.28a128 128 0 0 0-128 128v61.44a128 128 0 0 0 128 128h143.872a128 128 0 0 0 128-128v-61.44a128 128 0 0 0-128-128z m76.8 189.44a76.8 76.8 0 0 1-76.8 76.8H225.28a76.8 76.8 0 0 1-76.8-76.8v-61.44a76.8 76.8 0 0 1 76.8-76.8h143.872a76.8 76.8 0 0 1 76.8 76.8zM798.72 547.84h-143.872a128 128 0 0 0-128 128v61.44a128 128 0 0 0 128 128h143.872a128 128 0 0 0 128-128v-61.44a128 128 0 0 0-128-128z m76.8 189.44a76.8 76.8 0 0 1-76.8 76.8h-143.872a76.8 76.8 0 0 1-76.8-76.8v-61.44a76.8 76.8 0 0 1 76.8-76.8h143.872a76.8 76.8 0 0 1 76.8 76.8zM369.152 188.928H225.28a128 128 0 0 0-128 128v61.44a128 128 0 0 0 128 128h143.872a128 128 0 0 0 128-128v-61.44a128 128 0 0 0-128-128z m76.8 189.44a76.8 76.8 0 0 1-76.8 76.8H225.28a76.8 76.8 0 0 1-76.8-76.8v-61.44a76.8 76.8 0 0 1 76.8-76.8h143.872a76.8 76.8 0 0 1 76.8 76.8zM798.72 188.928h-143.872a128 128 0 0 0-128 128v61.44a128 128 0 0 0 128 128h143.872a128 128 0 0 0 128-128v-61.44a128 128 0 0 0-128-128z m76.8 189.44a76.8 76.8 0 0 1-76.8 76.8h-143.872a76.8 76.8 0 0 1-76.8-76.8v-61.44a76.8 76.8 0 0 1 76.8-76.8h143.872a76.8 76.8 0 0 1 76.8 76.8z" fill="" p-id="2101"></path></svg>