<?xml version="1.0" standalone="no"?><!DOCTYPE svg PUBLIC "-//W3C//DTD SVG 1.1//EN" "http://www.w3.org/Graphics/SVG/1.1/DTD/svg11.dtd"><svg t="1640602515712" class="icon" viewBox="0 0 1024 1024" version="1.1" xmlns="http://www.w3.org/2000/svg" p-id="2165" xmlns:xlink="http://www.w3.org/1999/xlink" width="64" height="64"><defs><style type="text/css"></style></defs><path d="M574.4 698.7c-12.9 0-24.7-8.3-28.7-21.3-4.8-15.8 4.1-32.6 19.9-37.4 55.4-16.9 92.7-60.4 92.7-108.1v-291c0-63.7-64.1-115.5-142.8-115.5-78.7 0-142.8 51.8-142.8 115.5v291c0 47.6 37 90.9 92.2 108 15.8 4.9 24.7 21.7 19.8 37.5s-21.7 24.7-37.5 19.8c-38.4-11.9-71.4-33.2-95.5-61.8-25.5-30.2-38.9-66-38.9-103.5v-291c0-47.9 21.8-92.5 61.3-125.8 38-32 88.3-49.7 141.5-49.7S619.1 83 657.1 115.1c39.5 33.3 61.3 78 61.3 125.8v291c0 37.7-13.5 73.6-39.1 103.8-24.2 28.6-57.4 49.9-96 61.7-3.1 0.9-6 1.3-8.9 1.3z" fill="#707070" p-id="2166"></path><path d="M515 773.5c-71.9 0-139.9-21.1-191.3-59.4-25.9-19.3-46.3-41.9-60.7-67.3-15.4-27.1-23.2-56-23.2-85.9 0-16.6 13.4-30 30-30s30 13.4 30 30c0 39.1 21.2 76.4 59.7 105.1 41.2 30.7 96.4 47.5 155.5 47.5 59.1 0 114.3-16.9 155.5-47.5 38.5-28.7 59.7-66 59.7-105.1 0-16.6 13.4-30 30-30s30 13.4 30 30c0 29.9-7.8 58.8-23.2 85.9-14.4 25.4-34.8 48-60.7 67.3-51.4 38.3-119.4 59.4-191.3 59.4z" fill="#707070" p-id="2167"></path><path d="M515.5 884.7c-16.6 0-30-13.4-30-30v-57.5c0-16.6 13.4-30 30-30s30 13.4 30 30v57.5c0 16.6-13.4 30-30 30zM456 350.3H343.7c-16.6 0-30-13.4-30-30s13.4-30 30-30H456c16.6 0 30 13.4 30 30s-13.4 30-30 30zM456 271.1H343.7c-16.6 0-30-13.4-30-30s13.4-30 30-30H456c16.6 0 30 13.4 30 30s-13.4 30-30 30zM456 430.4H343.7c-16.6 0-30-13.4-30-30s13.4-30 30-30H456c16.6 0 30 13.4 30 30s-13.4 30-30 30zM456 509.6H343.7c-16.6 0-30-13.4-30-30s13.4-30 30-30H456c16.6 0 30 13.4 30 30s-13.4 30-30 30zM686.8 350.3H574.5c-16.6 0-30-13.4-30-30s13.4-30 30-30h112.3c16.6 0 30 13.4 30 30s-13.5 30-30 30zM686.8 271.1H574.5c-16.6 0-30-13.4-30-30s13.4-30 30-30h112.3c16.6 0 30 13.4 30 30s-13.5 30-30 30zM686.8 430.4H574.5c-16.6 0-30-13.4-30-30s13.4-30 30-30h112.3c16.6 0 30 13.4 30 30s-13.5 30-30 30zM686.8 509.6H574.5c-16.6 0-30-13.4-30-30s13.4-30 30-30h112.3c16.6 0 30 13.4 30 30s-13.5 30-30 30z" fill="#707070" p-id="2168"></path><path d="M673.9 945.4c-16.6 0-30-13.4-30-30 0-13.6-3.8-15.3-7.1-16.9-10-4.6-29.1-5.3-46.5-5.3H439.8c-17.4 0-36.5 0.6-46.5 5.3-3.3 1.6-7.1 3.3-7.1 16.9 0 16.6-13.4 30-30 30s-30-13.4-30-30c0-42.8 22.7-62.4 41.8-71.3 21.6-10 48.3-10.9 71.8-10.9h150.5c23.4 0 50.2 0.8 71.8 10.9 19.1 8.9 41.8 28.4 41.8 71.3 0 16.6-13.5 30-30 30z" fill="#707070" p-id="2169"></path></svg>