<?xml version="1.0" standalone="no"?><!DOCTYPE svg PUBLIC "-//W3C//DTD SVG 1.1//EN" "http://www.w3.org/Graphics/SVG/1.1/DTD/svg11.dtd"><svg t="1640602533592" class="icon" viewBox="0 0 1024 1024" version="1.1" xmlns="http://www.w3.org/2000/svg" p-id="2411" xmlns:xlink="http://www.w3.org/1999/xlink" width="64" height="64"><defs><style type="text/css"></style></defs><path d="M551.8 650.2L360.5 377.1h-29.1v175.5c0 53.7 43.9 97.6 97.6 97.6h122.8z" p-id="2412" fill="#2c2c2c"></path><path d="M605.4 726.8H360.5c-70.7 0-128.3-56.8-128.3-126.6V413.7c0-18.4-14.9-33.3-33.3-33.3s-33.3 14.9-33.3 33.3v186.5c0 106.5 87.4 193.2 194.9 193.2H471V920c0 22 18 40 40 40s40-18 40-40V793.5h101.2l-46.8-66.7zM858.4 600.3V413.7c0-18.4-14.9-33.3-33.3-33.3s-33.3 14.9-33.3 33.3v186.5c0 49.1-28.5 91.7-70.1 112.6l-62.1-88.7c19.3-17.8 31.5-43.3 31.5-71.6V377.1H584.6v-40h106.6v-40H584.6v-40h106.6v-40H584.6v-40h106.6v-15.6c0-53.7-43.9-97.6-97.6-97.6H429.1c-51.7 0-94.4 40.8-97.4 91.7L296 104.9c-8.4-12-25.1-14.9-37.1-6.5s-14.9 25.1-6.5 37.1l504.4 720.3c8.4 12 25.1 15 37.1 6.5 12-8.4 15-25.1 6.5-37.1l-40.3-57.5c58.7-33.3 98.3-95.8 98.3-167.4zM430.6 297.2l-28-40H438v40h-7.4z m7.4-120v40h-63.3l-28-40H438z" p-id="2413" fill="#2c2c2c"></path></svg>