<?xml version="1.0" standalone="no"?><!DOCTYPE svg PUBLIC "-//W3C//DTD SVG 1.1//EN" "http://www.w3.org/Graphics/SVG/1.1/DTD/svg11.dtd"><svg t="1640593734066" class="icon" viewBox="0 0 1024 1024" version="1.1" xmlns="http://www.w3.org/2000/svg" p-id="2121" xmlns:xlink="http://www.w3.org/1999/xlink" width="64" height="64"><defs><style type="text/css"></style></defs><path d="M869.312 64 154.752 64C113.92 64 80.896 97.088 80.896 137.856l0 500.352c0 40.768 33.088 73.856 73.856 73.856l315.584 0L470.336 960l253.568-247.872 145.344 0c40.768 0 73.856-33.152 73.856-73.856L943.104 137.856C943.168 97.088 910.08 64 869.312 64zM896 610.944c0 36.288-29.44 65.792-65.728 65.792l-142.912 0L512 850.688l0-173.952L193.792 676.736C157.44 676.736 128 647.232 128 610.944L128 165.248c0-36.352 29.44-65.792 65.792-65.792l636.48 0C866.56 99.392 896 128.896 896 165.248L896 610.944z" p-id="2122" fill="#2c2c2c"></path><path d="M237.12 392.64m-70.016 0a1.094 1.094 0 1 0 140.032 0 1.094 1.094 0 1 0-140.032 0Z" p-id="2123" fill="#2c2c2c"></path><path d="M524.096 433.664C520.128 409.024 509.44 395.648 491.904 393.728L491.904 392.704c24.064-5.824 36.416-20.48 37.056-43.84C528.32 318.912 507.52 303.36 466.56 302.08L389.504 302.08l0 180.352 38.976 0L428.48 410.24l40.96 0c9.152 0 14.656 7.872 16.576 23.424 0.64 16.896 2.944 33.152 6.848 48.704l41.92 0c-5.248-6.464-8.448-20.8-9.728-42.88C524.352 437.568 524.096 435.648 524.096 433.664zM460.672 380.032 428.48 380.032 428.48 332.288l32.192 0c17.536 0 26.688 7.488 27.328 22.4C487.36 371.648 478.272 380.032 460.672 380.032z" p-id="2124" fill="#2c2c2c"></path><path d="M594.24 404.416 670.336 404.416 670.336 374.208 594.24 374.208 594.24 332.288 676.16 332.288 676.16 302.08 555.264 302.08 555.264 482.432 679.104 482.432 679.104 452.16 594.24 452.16Z" p-id="2125" fill="#2c2c2c"></path><path d="M776.64 326.4c22.144 1.344 33.792 12.672 35.136 34.176l40.96 0c-2.624-40.256-28.032-61.056-76.032-62.4-48.768 1.984-73.792 33.472-75.072 94.592 1.28 59.84 26.304 90.368 75.072 91.648 48.064-0.64 73.408-20.8 76.032-60.416l-40.96 0c-1.344 22.08-12.992 33.472-35.136 34.112-21.504-0.64-32.896-22.464-34.112-65.344C743.744 349.824 755.136 327.68 776.64 326.4z" p-id="2126" fill="#2c2c2c"></path></svg>