<?xml version="1.0" standalone="no"?><!DOCTYPE svg PUBLIC "-//W3C//DTD SVG 1.1//EN" "http://www.w3.org/Graphics/SVG/1.1/DTD/svg11.dtd"><svg t="1640593621254" class="icon" viewBox="0 0 1024 1024" version="1.1" xmlns="http://www.w3.org/2000/svg" p-id="2124" xmlns:xlink="http://www.w3.org/1999/xlink" width="64" height="64"><defs><style type="text/css"></style></defs><path d="M511.5 575.617c-75.605 0-146.685-29.442-200.145-82.903-53.461-53.461-82.903-124.54-82.903-200.145s29.442-146.684 82.903-200.145c53.46-53.46 124.54-82.902 200.145-82.902s146.684 29.442 200.145 82.902c53.46 53.461 82.902 124.54 82.902 200.145s-29.442 146.685-82.902 200.145c-53.461 53.461-124.541 82.903-200.145 82.903z m0-502.095c-120.784 0-219.048 98.264-219.048 219.047S390.716 511.617 511.5 511.617c120.783 0 219.047-98.265 219.047-219.048S632.282 73.522 511.5 73.522zM73 1021c-17.673 0-32-14.327-32-32 0-63.165 12.378-124.459 36.791-182.177 23.573-55.732 57.313-105.779 100.283-148.749s93.017-76.71 148.75-100.283C384.542 533.378 445.834 521 509 521c75.987 0 151.447 18.636 218.223 53.893 15.629 8.252 21.609 27.61 13.357 43.238-8.253 15.629-27.612 21.607-43.239 13.357C639.74 601.075 574.612 585 509 585c-222.767 0-404 181.233-404 404 0 17.673-14.327 32-32 32z m899.866-169.645H690.838c-17.673 0-32-14.327-32-32s14.327-32 32-32h282.028c17.673 0 32 14.327 32 32s-14.327 32-32 32zM831.853 992.37c-17.673 0-32-14.327-32-32V678.342c0-17.673 14.327-32 32-32s32 14.327 32 32V960.37c0 17.673-14.328 32-32 32z" fill="#707070" p-id="2125"></path></svg>